# xmcd
#
# Track frame offsets: 
#        150
#        36620
#        48472
#        60772
#        77162
#        90272
#        104140
#        119862
#        131720
#        142247
#        156717
#        172585
#        188115
#        197967
#        211272
#        226715
#        239407
#        252607
#        265700
#        273095
#        288792
#
# Disc length: 4052 seconds
#
# Revision: 4
# Processed by: cddbd v1.4PL0 Copyright (c) Steve Scherf et al.
# Submitted via: ExactAudioCopy v0.95a3
#
DISCID=3a0fd215
DTITLE=Frank Sinatra - The Complete Reprise Studio Recordings  Disc 6
DYEAR=1995
DGENRE=Vocal
TTITLE0=Soliloquy
TTITLE1=You Brought A New Kind Of Love To Me
TTITLE2=In The Wee Small Hours Of The Morning
TTITLE3=Nancy
TTITLE4=Young At Heart
TTITLE5=The Second Time Around
TTITLE6=All The Way
TTITLE7=Witchcraft
TTITLE8=How Little It Matters How Little We Know
TTITLE9=Put Your Dreams Away
TTITLE10=I've Got You Under My Skin
TTITLE11=Oh! What It Seemed To Be
TTITLE12=We Open In Venice
TTITLE13=Old Devil Moon
TTITLE14=When I'm Not Near The Girl I Love
TTITLE15=Guys And Dolls
TTITLE16=I've Never Been In Love Before
TTITLE17=So In Love (Reprise)
TTITLE18=Twin Soliloquies (Wonder How It Fells)
TTITLE19=Some Enchanted Evening
TTITLE20=Some Enchanted Evening (Reprise)
EXTD=YEAR: 1995
EXTT0=
EXTT1=
EXTT2=
EXTT3=
EXTT4=
EXTT5=
EXTT6=
EXTT7=
EXTT8=
EXTT9=
EXTT10=
EXTT11=
EXTT12=
EXTT13=
EXTT14=
EXTT15=
EXTT16=
EXTT17=
EXTT18=
EXTT19=
EXTT20=
PLAYORDER=
